<svg width="37" height="37" viewBox="0 0 37 37" version="1.1" xmlns="http://www.w3.org/2000/svg" xmlns:xlink="http://www.w3.org/1999/xlink">
<title>Instagram</title>
<desc>Created using Figma</desc>
<g id="Canvas" transform="translate(-179 604)">
<g id="Instagram">
<use xlink:href="#path0_fill" transform="translate(179.1 -603.9)"/>
</g>
</g>
<defs>
<path id="path0_fill" d="M 32.3 6.10352e-06L 4.40001 6.10352e-06C 2.00001 6.10352e-06 -1.2207e-05 1.89999 -1.2207e-05 4.29999L -1.2207e-05 32.3C -1.2207e-05 34.7 2.00001 36.6 4.40001 36.6L 32.3 36.6C 34.7 36.6 36.7 34.7 36.7 32.3L 36.7 4.29999C 36.6 1.99999 34.7 6.10352e-06 32.3 6.10352e-06ZM 26.3 5.79999C 26.3 5.19999 26.8 4.7 27.4 4.7L 30.8 4.7C 31.4 4.7 31.9 5.19999 31.9 5.79999L 31.9 9.2C 31.9 9.8 31.4 10.3 30.8 10.3L 27.4 10.3C 26.8 10.3 26.3 9.8 26.3 9.2L 26.3 5.79999ZM 18.3 11.4C 22.2 11.4 25.4 14.5 25.4 18.4C 25.4 22.3 22.2 25.4 18.3 25.4C 14.4 25.4 11.3 22.3 11.3 18.4C 11.3 14.5 14.4 11.4 18.3 11.4ZM 33.2 32.1C 33.2 32.7 32.7 33.2 32.1 33.2L 4.60002 33.2C 4.00002 33.2 3.49999 32.7 3.49999 32.1L 3.49999 14.9L 8.10002 14.9C 7.50002 15.8 7.29998 17.4 7.29998 18.4C 7.29998 24.5 12.3 29.5 18.5 29.5C 24.7 29.5 29.7 24.5 29.7 18.4C 29.7 17.4 29.6 15.8 28.8 14.9L 33.4 14.9L 33.4 32.1L 33.2 32.1Z"/>
</defs>
</svg>
