<svg width="220" height="210" viewBox="0 0 220 210" version="1.1" xmlns="http://www.w3.org/2000/svg" xmlns:xlink="http://www.w3.org/1999/xlink">
<title>Thomasstove.com</title>
<desc>Created using Figma</desc>
<g id="Canvas" transform="translate(-41 262)">
<g id="Thomasstove.com">
<use xlink:href="#path0_fill" transform="translate(42 -260.75)" fill="#FFFFFF"/>
<use xlink:href="#path1_stroke" transform="translate(42 -260.75)" fill="#FFFFFF"/>
</g>
</g>
<defs>
<path id="path0_fill" d="M 0 77.1068L 0 0L 218.325 0L 218.325 77.1068L 162.444 77.1068C 165.043 51.4046 160.278 12.9955 112.628 9.53006C 64.9777 6.06458 42.8853 79.2728 112.628 97.4665C 159.412 113.754 165.332 152.192 162.444 169.375C 161.289 182.226 149.709 207.929 112.628 207.929C 75.5474 207.929 66.2772 182.226 66.2772 169.375L 66.2772 77.1068L 0 77.1068Z"/>
<path id="path1_stroke" d="M 0 0L 0 -0.5L -0.5 -0.5L -0.5 0L 0 0ZM 0 77.1068L -0.5 77.1068L -0.5 77.6068L 0 77.6068L 0 77.1068ZM 66.2772 77.1068L 66.7772 77.1068L 66.7772 76.6068L 66.2772 76.6068L 66.2772 77.1068ZM 162.444 169.375L 161.951 169.292L 161.948 169.311L 161.946 169.33L 162.444 169.375ZM 112.628 97.4665L 112.792 96.9943L 112.774 96.9878L 112.754 96.9827L 112.628 97.4665ZM 112.628 9.53006L 112.592 10.0287L 112.628 9.53006ZM 162.444 77.1068L 161.947 77.0565L 161.891 77.6068L 162.444 77.6068L 162.444 77.1068ZM 218.325 77.1068L 218.325 77.6068L 218.825 77.6068L 218.825 77.1068L 218.325 77.1068ZM 218.325 0L 218.825 0L 218.825 -0.5L 218.325 -0.5L 218.325 0ZM -0.5 0L -0.5 77.1068L 0.5 77.1068L 0.5 0L -0.5 0ZM 0 77.6068L 66.2772 77.6068L 66.2772 76.6068L 0 76.6068L 0 77.6068ZM 65.7772 77.1068L 65.7772 169.375L 66.7772 169.375L 66.7772 77.1068L 65.7772 77.1068ZM 65.7772 169.375C 65.7772 175.902 68.1264 185.662 75.1693 193.798C 82.2278 201.953 93.9601 208.429 112.628 208.429L 112.628 207.429C 94.2153 207.429 82.7722 201.053 75.9254 193.144C 69.0631 185.216 66.7772 175.7 66.7772 169.375L 65.7772 169.375ZM 112.628 208.429C 131.296 208.429 143.595 201.953 151.37 193.816C 159.131 185.694 162.356 175.946 162.942 169.42L 161.946 169.33C 161.378 175.656 158.235 185.184 150.647 193.126C 143.072 201.053 131.041 207.429 112.628 207.429L 112.628 208.429ZM 162.937 169.458C 165.856 152.094 159.859 113.381 112.792 96.9943L 112.464 97.9387C 158.964 114.128 164.809 152.29 161.951 169.292L 162.937 169.458ZM 112.754 96.9827C 78.0821 87.9378 66.3799 65.2921 69.101 45.444C 71.8309 25.5316 89.0595 8.31731 112.592 10.0287L 112.664 9.03138C 88.5462 7.27734 70.9034 24.9344 68.1102 45.3082C 65.3082 65.7462 77.4311 88.8015 112.502 97.9503L 112.754 96.9827ZM 112.592 10.0287C 136.259 11.75 149.199 22.1289 155.935 35.2086C 162.693 48.3307 163.242 64.2439 161.947 77.0565L 162.942 77.1572C 164.245 64.2676 163.712 48.1251 156.824 34.7507C 149.915 21.3339 136.647 10.7756 112.664 9.03138L 112.592 10.0287ZM 162.444 77.6068L 218.325 77.6068L 218.325 76.6068L 162.444 76.6068L 162.444 77.6068ZM 218.825 77.1068L 218.825 0L 217.825 0L 217.825 77.1068L 218.825 77.1068ZM 218.325 -0.5L 0 -0.5L 0 0.5L 218.325 0.5L 218.325 -0.5Z"/>
</defs>
</svg>
